<svg width="1420" height="482" viewBox="0 0 1420 482" fill="none" xmlns="http://www.w3.org/2000/svg">
<g filter="url(#filter0_d_148_3)">
<rect x="6" y="4" width="1408" height="470" rx="8" fill="white"/>
</g>
<path d="M78 43V397" stroke="#787389" stroke-opacity="0.2" stroke-miterlimit="10"/>
<path d="M77 397L1333 397" stroke="#787389" stroke-opacity="0.2" stroke-miterlimit="10"/>
<path d="M36.7969 216.406L48 220.555L48 222L36.7969 226.062L36.7969 224.602L45.6797 221.5C45.9661 221.401 46.2969 221.326 46.6719 221.273L46.6719 221.242C46.3594 221.201 46.0234 221.115 45.6641 220.984L36.7969 217.82L36.7969 216.406ZM48 210.414L48 211.695L46.75 211.695L46.75 211.727C47.7083 212.284 48.1875 213.104 48.1875 214.187C48.1875 214.984 47.9766 215.609 47.5547 216.062C47.1328 216.51 46.5729 216.734 45.875 216.734C44.3802 216.734 43.5104 215.854 43.2656 214.094L42.9297 211.695C41.5703 211.695 40.8906 212.245 40.8906 213.344C40.8906 214.307 41.2187 215.177 41.875 215.953L40.5625 215.953C40.0625 215.167 39.8125 214.26 39.8125 213.234C39.8125 211.354 40.8073 210.414 42.7969 210.414L48 210.414ZM43.9531 211.695L44.2187 213.625C44.3021 214.219 44.4505 214.667 44.6641 214.969C44.8724 215.271 45.2448 215.422 45.7812 215.422C46.1719 215.422 46.4922 215.284 46.7422 215.008C46.987 214.727 47.1094 214.354 47.1094 213.891C47.1094 213.255 46.888 212.732 46.4453 212.32C45.9974 211.904 45.4323 211.695 44.75 211.695L43.9531 211.695ZM48 206.719L48 208L36.1562 208L36.1562 206.719L48 206.719ZM48 197.656L48 198.937L46.7344 198.937L46.7344 198.969C47.7031 199.5 48.1875 200.323 48.1875 201.437C48.1875 203.344 47.0521 204.297 44.7812 204.297L40 204.297L40 203.023L44.5781 203.023C46.2656 203.023 47.1094 202.378 47.1094 201.086C47.1094 200.461 46.8802 199.948 46.4219 199.547C45.9583 199.141 45.3542 198.937 44.6094 198.937L40 198.937L40 197.656L48 197.656ZM44.3203 188.633L44.3203 194.281C45.2109 194.26 45.8984 194.021 46.3828 193.562C46.8672 193.104 47.1094 192.474 47.1094 191.672C47.1094 190.771 46.8125 189.943 46.2187 189.187L47.4219 189.187C47.9323 189.891 48.1875 190.82 48.1875 191.977C48.1875 193.107 47.8255 193.995 47.1016 194.641C46.3724 195.286 45.349 195.609 44.0312 195.609C42.7865 195.609 41.7734 195.258 40.9922 194.555C40.2057 193.846 39.8125 192.969 39.8125 191.922C39.8125 190.875 40.151 190.065 40.8281 189.492C41.5052 188.919 42.4453 188.633 43.6484 188.633L44.3203 188.633ZM43.2344 189.945C42.4948 189.951 41.9193 190.13 41.5078 190.484C41.0964 190.833 40.8906 191.32 40.8906 191.945C40.8906 192.549 41.1068 193.062 41.5391 193.484C41.9714 193.906 42.5365 194.167 43.2344 194.266L43.2344 189.945ZM37.9687 181.641C37.9687 181.87 37.8906 182.065 37.7344 182.227C37.5781 182.388 37.3802 182.469 37.1406 182.469C36.901 182.469 36.7031 182.388 36.5469 182.227C36.3854 182.065 36.3047 181.87 36.3047 181.641C36.3047 181.406 36.3854 181.208 36.5469 181.047C36.7031 180.88 36.901 180.797 37.1406 180.797C37.3698 180.797 37.5651 180.88 37.7266 181.047C37.888 181.208 37.9687 181.406 37.9687 181.641ZM48 181.016L48 182.297L40 182.297L40 181.016L48 181.016ZM48 171.781L48 173.062L43.4375 173.062C41.7396 173.062 40.8906 173.682 40.8906 174.922C40.8906 175.562 41.1328 176.094 41.6172 176.516C42.0964 176.932 42.7031 177.141 43.4375 177.141L48 177.141L48 178.422L40 178.422L40 177.141L41.3281 177.141L41.3281 177.109C40.3177 176.505 39.8125 175.63 39.8125 174.484C39.8125 173.609 40.0964 172.94 40.6641 172.477C41.2266 172.013 42.0417 171.781 43.1094 171.781L48 171.781ZM47.5312 157.172C47.9687 158 48.1875 159.031 48.1875 160.266C48.1875 161.859 47.6745 163.135 46.6484 164.094C45.6224 165.052 44.276 165.531 42.6094 165.531C40.8177 165.531 39.3698 164.992 38.2656 163.914C37.1615 162.836 36.6094 161.469 36.6094 159.812C36.6094 158.75 36.763 157.87 37.0703 157.172L38.4687 157.172C38.0208 157.974 37.7969 158.859 37.7969 159.828C37.7969 161.115 38.2266 162.159 39.0859 162.961C39.9453 163.758 41.0937 164.156 42.5312 164.156C43.8958 164.156 44.9844 163.784 45.7969 163.039C46.6042 162.289 47.0078 161.307 47.0078 160.094C47.0078 158.969 46.7578 157.995 46.2578 157.172L47.5312 157.172ZM41.2969 150.891C41.125 151.115 41.0391 151.437 41.0391 151.859C41.0391 152.406 41.2969 152.865 41.8125 153.234C42.3281 153.599 43.0312 153.781 43.9219 153.781L48 153.781L48 155.062L40 155.062L40 153.781L41.6484 153.781L41.6484 153.75C41.0859 153.568 40.6484 153.289 40.3359 152.914C40.0182 152.539 39.8594 152.12 39.8594 151.656C39.8594 151.323 39.8958 151.068 39.9687 150.891L41.2969 150.891Z" fill="#959595"/>
<path d="M163.031 427.096H162.052V421.459C162.052 421.014 162.079 420.469 162.134 419.824H162.111C162.017 420.203 161.933 420.475 161.859 420.639L158.988 427.096H158.507L155.642 420.686C155.56 420.498 155.476 420.211 155.39 419.824H155.367C155.398 420.16 155.413 420.709 155.413 421.471V427.096H154.464V418.693H155.765L158.343 424.553C158.542 425.002 158.671 425.338 158.73 425.561H158.765C158.933 425.1 159.068 424.756 159.169 424.529L161.8 418.693H163.031V427.096ZM169.411 427.096H168.451V426.158H168.427C168.009 426.877 167.394 427.236 166.581 427.236C165.984 427.236 165.515 427.078 165.175 426.762C164.839 426.445 164.671 426.025 164.671 425.502C164.671 424.381 165.331 423.729 166.652 423.545L168.451 423.293C168.451 422.273 168.038 421.764 167.214 421.764C166.492 421.764 165.839 422.01 165.257 422.502V421.518C165.847 421.143 166.527 420.955 167.296 420.955C168.706 420.955 169.411 421.701 169.411 423.193V427.096ZM168.451 424.061L167.003 424.26C166.558 424.322 166.222 424.434 165.995 424.594C165.769 424.75 165.656 425.029 165.656 425.432C165.656 425.725 165.759 425.965 165.966 426.152C166.177 426.336 166.456 426.428 166.804 426.428C167.281 426.428 167.673 426.262 167.982 425.93C168.294 425.594 168.451 425.17 168.451 424.658V424.061ZM174.351 422.068C174.183 421.939 173.941 421.875 173.624 421.875C173.214 421.875 172.87 422.068 172.593 422.455C172.32 422.842 172.183 423.369 172.183 424.037V427.096H171.222V421.096H172.183V422.332H172.206C172.343 421.91 172.552 421.582 172.833 421.348C173.115 421.109 173.429 420.99 173.777 420.99C174.027 420.99 174.218 421.018 174.351 421.072V422.068ZM178.945 420.896C178.945 420.639 178.904 420.414 178.822 420.223C178.743 420.031 178.634 419.873 178.493 419.748C178.357 419.619 178.195 419.523 178.007 419.461C177.82 419.398 177.617 419.367 177.398 419.367C177.21 419.367 177.027 419.393 176.847 419.443C176.667 419.494 176.492 419.564 176.32 419.654C176.152 419.744 175.988 419.852 175.827 419.977C175.671 420.102 175.525 420.24 175.388 420.393V419.361C175.658 419.1 175.958 418.9 176.29 418.764C176.626 418.623 177.035 418.553 177.515 418.553C177.859 418.553 178.177 418.604 178.47 418.705C178.763 418.803 179.017 418.947 179.232 419.139C179.447 419.33 179.615 419.566 179.736 419.848C179.861 420.129 179.923 420.451 179.923 420.814C179.923 421.146 179.884 421.447 179.806 421.717C179.732 421.986 179.617 422.24 179.46 422.479C179.308 422.717 179.115 422.945 178.88 423.164C178.646 423.383 178.37 423.605 178.054 423.832C177.66 424.113 177.333 424.354 177.076 424.553C176.822 424.752 176.618 424.939 176.466 425.115C176.318 425.287 176.212 425.461 176.15 425.637C176.091 425.809 176.062 426.008 176.062 426.234H180.245V427.096H175.06V426.68C175.06 426.32 175.099 426.004 175.177 425.73C175.255 425.457 175.384 425.197 175.564 424.951C175.743 424.705 175.978 424.459 176.267 424.213C176.56 423.967 176.917 423.689 177.339 423.381C177.644 423.162 177.898 422.953 178.101 422.754C178.308 422.555 178.474 422.355 178.599 422.156C178.724 421.957 178.812 421.756 178.863 421.553C178.917 421.346 178.945 421.127 178.945 420.896ZM185.132 427.096H184.171V419.836C184.097 419.91 183.988 419.996 183.843 420.094C183.702 420.188 183.542 420.281 183.363 420.375C183.187 420.469 182.999 420.557 182.8 420.639C182.605 420.721 182.413 420.785 182.226 420.832V419.859C182.437 419.801 182.66 419.723 182.894 419.625C183.132 419.523 183.365 419.412 183.591 419.291C183.822 419.166 184.038 419.037 184.242 418.904C184.445 418.768 184.62 418.635 184.769 418.506H185.132V427.096Z" fill="#959595"/>
<rect x="129.801" y="214.415" width="81.1205" height="182.209" fill="#D9D9D9"/>
<path d="M370.364 424.084C370.364 425.08 370.153 425.855 369.731 426.41C369.309 426.961 368.745 427.236 368.038 427.236C367.71 427.236 367.44 427.189 367.229 427.096V426.123C367.44 426.275 367.713 426.352 368.049 426.352C368.936 426.352 369.379 425.6 369.379 424.096V418.693H370.364V424.084ZM377.225 427.096H376.264V426.146H376.241C375.842 426.873 375.225 427.236 374.389 427.236C372.96 427.236 372.245 426.385 372.245 424.682V421.096H373.2V424.529C373.2 425.795 373.684 426.428 374.653 426.428C375.122 426.428 375.506 426.256 375.807 425.912C376.112 425.564 376.264 425.111 376.264 424.553V421.096H377.225V427.096ZM384.151 427.096H383.19V423.674C383.19 422.4 382.725 421.764 381.795 421.764C381.315 421.764 380.917 421.945 380.6 422.309C380.288 422.668 380.131 423.123 380.131 423.674V427.096H379.17V421.096H380.131V422.092H380.155C380.608 421.334 381.264 420.955 382.124 420.955C382.78 420.955 383.282 421.168 383.629 421.594C383.977 422.016 384.151 422.627 384.151 423.428V427.096ZM389.518 420.896C389.518 420.639 389.477 420.414 389.395 420.223C389.317 420.031 389.208 419.873 389.067 419.748C388.93 419.619 388.768 419.523 388.581 419.461C388.393 419.398 388.19 419.367 387.971 419.367C387.784 419.367 387.6 419.393 387.42 419.443C387.241 419.494 387.065 419.564 386.893 419.654C386.725 419.744 386.561 419.852 386.401 419.977C386.245 420.102 386.098 420.24 385.962 420.393V419.361C386.231 419.1 386.532 418.9 386.864 418.764C387.2 418.623 387.608 418.553 388.088 418.553C388.432 418.553 388.751 418.604 389.044 418.705C389.337 418.803 389.59 418.947 389.805 419.139C390.02 419.33 390.188 419.566 390.309 419.848C390.434 420.129 390.497 420.451 390.497 420.814C390.497 421.146 390.458 421.447 390.379 421.717C390.305 421.986 390.19 422.24 390.034 422.479C389.881 422.717 389.688 422.945 389.454 423.164C389.219 423.383 388.944 423.605 388.628 423.832C388.233 424.113 387.907 424.354 387.649 424.553C387.395 424.752 387.192 424.939 387.04 425.115C386.891 425.287 386.786 425.461 386.723 425.637C386.665 425.809 386.635 426.008 386.635 426.234H390.819V427.096H385.633V426.68C385.633 426.32 385.672 426.004 385.751 425.73C385.829 425.457 385.958 425.197 386.137 424.951C386.317 424.705 386.551 424.459 386.84 424.213C387.133 423.967 387.491 423.689 387.913 423.381C388.217 423.162 388.471 422.953 388.674 422.754C388.881 422.555 389.047 422.355 389.172 422.156C389.297 421.957 389.385 421.756 389.436 421.553C389.491 421.346 389.518 421.127 389.518 420.896ZM395.706 427.096H394.745V419.836C394.67 419.91 394.561 419.996 394.417 420.094C394.276 420.188 394.116 420.281 393.936 420.375C393.76 420.469 393.573 420.557 393.374 420.639C393.178 420.721 392.987 420.785 392.799 420.832V419.859C393.01 419.801 393.233 419.723 393.467 419.625C393.706 419.523 393.938 419.412 394.165 419.291C394.395 419.166 394.612 419.037 394.815 418.904C395.018 418.768 395.194 418.635 395.342 418.506H395.706V427.096Z" fill="#959595"/>
<rect x="341.962" y="140.782" width="81.1205" height="255.841" fill="#D9D9D9"/>
<path d="M589.515 426.756V425.596C589.648 425.713 589.806 425.818 589.99 425.912C590.177 426.006 590.372 426.086 590.576 426.152C590.783 426.215 590.99 426.264 591.197 426.299C591.404 426.334 591.595 426.352 591.771 426.352C592.376 426.352 592.827 426.24 593.124 426.018C593.425 425.791 593.576 425.467 593.576 425.045C593.576 424.818 593.525 424.621 593.423 424.453C593.326 424.285 593.189 424.133 593.013 423.996C592.837 423.855 592.628 423.723 592.386 423.598C592.148 423.469 591.89 423.334 591.613 423.193C591.32 423.045 591.046 422.895 590.792 422.742C590.538 422.59 590.318 422.422 590.13 422.238C589.943 422.055 589.794 421.848 589.685 421.617C589.579 421.383 589.527 421.109 589.527 420.797C589.527 420.414 589.611 420.082 589.779 419.801C589.947 419.516 590.167 419.281 590.441 419.098C590.714 418.914 591.025 418.777 591.372 418.688C591.724 418.598 592.081 418.553 592.445 418.553C593.273 418.553 593.876 418.652 594.255 418.852V419.959C593.759 419.615 593.122 419.443 592.345 419.443C592.13 419.443 591.915 419.467 591.701 419.514C591.486 419.557 591.294 419.629 591.126 419.73C590.958 419.832 590.822 419.963 590.716 420.123C590.611 420.283 590.558 420.479 590.558 420.709C590.558 420.924 590.597 421.109 590.675 421.266C590.757 421.422 590.876 421.564 591.033 421.693C591.189 421.822 591.378 421.947 591.601 422.068C591.827 422.189 592.087 422.322 592.38 422.467C592.681 422.615 592.966 422.771 593.236 422.936C593.505 423.1 593.742 423.281 593.945 423.48C594.148 423.68 594.308 423.9 594.425 424.143C594.546 424.385 594.607 424.662 594.607 424.975C594.607 425.389 594.525 425.74 594.361 426.029C594.201 426.314 593.982 426.547 593.704 426.727C593.431 426.906 593.115 427.035 592.755 427.113C592.396 427.195 592.017 427.236 591.618 427.236C591.486 427.236 591.322 427.225 591.126 427.201C590.931 427.182 590.732 427.15 590.529 427.107C590.326 427.068 590.132 427.02 589.949 426.961C589.769 426.898 589.624 426.83 589.515 426.756ZM600.976 424.336H596.74C596.755 425.004 596.935 425.52 597.279 425.883C597.622 426.246 598.095 426.428 598.697 426.428C599.372 426.428 599.993 426.205 600.56 425.76V426.662C600.033 427.045 599.335 427.236 598.468 427.236C597.62 427.236 596.954 426.965 596.47 426.422C595.986 425.875 595.743 425.107 595.743 424.119C595.743 423.186 596.007 422.426 596.535 421.84C597.066 421.25 597.724 420.955 598.509 420.955C599.294 420.955 599.902 421.209 600.331 421.717C600.761 422.225 600.976 422.93 600.976 423.832V424.336ZM599.992 423.521C599.988 422.967 599.853 422.535 599.587 422.227C599.326 421.918 598.96 421.764 598.492 421.764C598.038 421.764 597.654 421.926 597.337 422.25C597.021 422.574 596.826 422.998 596.751 423.521H599.992ZM603.419 426.229H603.396V429.855H602.435V421.096H603.396V422.15H603.419C603.892 421.354 604.583 420.955 605.493 420.955C606.267 420.955 606.87 421.225 607.304 421.764C607.738 422.299 607.954 423.018 607.954 423.92C607.954 424.924 607.71 425.729 607.222 426.334C606.734 426.936 606.066 427.236 605.218 427.236C604.441 427.236 603.841 426.9 603.419 426.229ZM603.396 423.809V424.646C603.396 425.143 603.556 425.564 603.876 425.912C604.201 426.256 604.611 426.428 605.107 426.428C605.689 426.428 606.144 426.205 606.472 425.76C606.804 425.314 606.97 424.695 606.97 423.902C606.97 423.234 606.816 422.711 606.507 422.332C606.199 421.953 605.781 421.764 605.253 421.764C604.695 421.764 604.245 421.959 603.906 422.35C603.566 422.736 603.396 423.223 603.396 423.809ZM612.273 427.037C612.046 427.162 611.747 427.225 611.376 427.225C610.326 427.225 609.8 426.639 609.8 425.467V421.916H608.769V421.096H609.8V419.631L610.761 419.32V421.096H612.273V421.916H610.761V425.297C610.761 425.699 610.829 425.986 610.966 426.158C611.103 426.33 611.329 426.416 611.646 426.416C611.888 426.416 612.097 426.35 612.273 426.217V427.037ZM617.107 420.896C617.107 420.639 617.066 420.414 616.984 420.223C616.906 420.031 616.796 419.873 616.656 419.748C616.519 419.619 616.357 419.523 616.169 419.461C615.982 419.398 615.779 419.367 615.56 419.367C615.372 419.367 615.189 419.393 615.009 419.443C614.829 419.494 614.654 419.564 614.482 419.654C614.314 419.744 614.15 419.852 613.99 419.977C613.833 420.102 613.687 420.24 613.55 420.393V419.361C613.82 419.1 614.12 418.9 614.452 418.764C614.788 418.623 615.197 418.553 615.677 418.553C616.021 418.553 616.339 418.604 616.632 418.705C616.925 418.803 617.179 418.947 617.394 419.139C617.609 419.33 617.777 419.566 617.898 419.848C618.023 420.129 618.085 420.451 618.085 420.814C618.085 421.146 618.046 421.447 617.968 421.717C617.894 421.986 617.779 422.24 617.622 422.479C617.47 422.717 617.277 422.945 617.042 423.164C616.808 423.383 616.533 423.605 616.216 423.832C615.822 424.113 615.495 424.354 615.238 424.553C614.984 424.752 614.781 424.939 614.628 425.115C614.48 425.287 614.374 425.461 614.312 425.637C614.253 425.809 614.224 426.008 614.224 426.234H618.408V427.096H613.222V426.68C613.222 426.32 613.261 426.004 613.339 425.73C613.417 425.457 613.546 425.197 613.726 424.951C613.906 424.705 614.14 424.459 614.429 424.213C614.722 423.967 615.079 423.689 615.501 423.381C615.806 423.162 616.06 422.953 616.263 422.754C616.47 422.555 616.636 422.355 616.761 422.156C616.886 421.957 616.974 421.756 617.025 421.553C617.079 421.346 617.107 421.127 617.107 420.896ZM623.294 427.096H622.333V419.836C622.259 419.91 622.15 419.996 622.005 420.094C621.865 420.188 621.704 420.281 621.525 420.375C621.349 420.469 621.161 420.557 620.962 420.639C620.767 420.721 620.576 420.785 620.388 420.832V419.859C620.599 419.801 620.822 419.723 621.056 419.625C621.294 419.523 621.527 419.412 621.753 419.291C621.984 419.166 622.201 419.037 622.404 418.904C622.607 418.768 622.783 418.635 622.931 418.506H623.294V427.096Z" fill="#959595"/>
<rect x="566.603" y="89.6138" width="81.1205" height="307.01" fill="#D9D9D9"/>
<path d="M803.838 427.096V418.693H806.159C809.119 418.693 810.6 420.059 810.6 422.789C810.6 424.086 810.188 425.129 809.364 425.918C808.543 426.703 807.444 427.096 806.065 427.096H803.838ZM804.823 419.584V426.205H806.076C807.178 426.205 808.035 425.91 808.649 425.32C809.262 424.73 809.569 423.895 809.569 422.812C809.569 420.66 808.424 419.584 806.135 419.584H804.823ZM816.946 424.336H812.709C812.725 425.004 812.905 425.52 813.248 425.883C813.592 426.246 814.065 426.428 814.666 426.428C815.342 426.428 815.963 426.205 816.53 425.76V426.662C816.002 427.045 815.305 427.236 814.438 427.236C813.59 427.236 812.924 426.965 812.44 426.422C811.955 425.875 811.713 425.107 811.713 424.119C811.713 423.186 811.977 422.426 812.504 421.84C813.035 421.25 813.694 420.955 814.479 420.955C815.264 420.955 815.871 421.209 816.301 421.717C816.731 422.225 816.946 422.93 816.946 423.832V424.336ZM815.961 423.521C815.957 422.967 815.823 422.535 815.557 422.227C815.295 421.918 814.93 421.764 814.461 421.764C814.008 421.764 813.623 421.926 813.307 422.25C812.991 422.574 812.795 422.998 812.721 423.521H815.961ZM822.494 426.82C822.034 427.098 821.487 427.236 820.854 427.236C819.998 427.236 819.307 426.959 818.78 426.404C818.256 425.846 817.994 425.123 817.994 424.236C817.994 423.248 818.278 422.455 818.844 421.857C819.41 421.256 820.166 420.955 821.112 420.955C821.639 420.955 822.104 421.053 822.506 421.248V422.232C822.061 421.92 821.584 421.764 821.076 421.764C820.463 421.764 819.959 421.984 819.565 422.426C819.174 422.863 818.979 423.439 818.979 424.154C818.979 424.857 819.162 425.412 819.53 425.818C819.901 426.225 820.397 426.428 821.018 426.428C821.541 426.428 822.034 426.254 822.494 425.906V426.82ZM827.498 420.896C827.498 420.639 827.457 420.414 827.375 420.223C827.297 420.031 827.188 419.873 827.047 419.748C826.91 419.619 826.748 419.523 826.561 419.461C826.373 419.398 826.17 419.367 825.951 419.367C825.764 419.367 825.58 419.393 825.401 419.443C825.221 419.494 825.045 419.564 824.873 419.654C824.705 419.744 824.541 419.852 824.381 419.977C824.225 420.102 824.078 420.24 823.942 420.393V419.361C824.211 419.1 824.512 418.9 824.844 418.764C825.18 418.623 825.588 418.553 826.069 418.553C826.412 418.553 826.731 418.604 827.024 418.705C827.317 418.803 827.571 418.947 827.785 419.139C828 419.33 828.168 419.566 828.289 419.848C828.414 420.129 828.477 420.451 828.477 420.814C828.477 421.146 828.438 421.447 828.36 421.717C828.285 421.986 828.17 422.24 828.014 422.479C827.862 422.717 827.668 422.945 827.434 423.164C827.2 423.383 826.924 423.605 826.608 423.832C826.213 424.113 825.887 424.354 825.629 424.553C825.375 424.752 825.172 424.939 825.02 425.115C824.871 425.287 824.766 425.461 824.703 425.637C824.645 425.809 824.616 426.008 824.616 426.234H828.799V427.096H823.614V426.68C823.614 426.32 823.653 426.004 823.731 425.73C823.809 425.457 823.938 425.197 824.118 424.951C824.297 424.705 824.532 424.459 824.821 424.213C825.114 423.967 825.471 423.689 825.893 423.381C826.198 423.162 826.451 422.953 826.655 422.754C826.862 422.555 827.028 422.355 827.153 422.156C827.278 421.957 827.366 421.756 827.416 421.553C827.471 421.346 827.498 421.127 827.498 420.896ZM833.686 427.096H832.725V419.836C832.651 419.91 832.541 419.996 832.397 420.094C832.256 420.188 832.096 420.281 831.916 420.375C831.741 420.469 831.553 420.557 831.354 420.639C831.159 420.721 830.967 420.785 830.78 420.832V419.859C830.991 419.801 831.213 419.723 831.448 419.625C831.686 419.523 831.918 419.412 832.145 419.291C832.375 419.166 832.592 419.037 832.795 418.904C832.998 418.768 833.174 418.635 833.323 418.506H833.686V427.096Z" fill="#959595"/>
<rect x="778.764" y="164.494" width="81.1205" height="232.129" fill="#D9D9D9"/>
<path d="M1024.16 427.096H1023.18V421.459C1023.18 421.014 1023.2 420.469 1023.26 419.824H1023.24C1023.14 420.203 1023.06 420.475 1022.98 420.639L1020.11 427.096H1019.63L1016.77 420.686C1016.68 420.498 1016.6 420.211 1016.51 419.824H1016.49C1016.52 420.16 1016.54 420.709 1016.54 421.471V427.096H1015.59V418.693H1016.89L1019.47 424.553C1019.67 425.002 1019.8 425.338 1019.85 425.561H1019.89C1020.06 425.1 1020.19 424.756 1020.29 424.529L1022.93 418.693H1024.16V427.096ZM1030.54 427.096H1029.58V426.158H1029.55C1029.13 426.877 1028.52 427.236 1027.71 427.236C1027.11 427.236 1026.64 427.078 1026.3 426.762C1025.96 426.445 1025.8 426.025 1025.8 425.502C1025.8 424.381 1026.46 423.729 1027.78 423.545L1029.58 423.293C1029.58 422.273 1029.16 421.764 1028.34 421.764C1027.62 421.764 1026.96 422.01 1026.38 422.502V421.518C1026.97 421.143 1027.65 420.955 1028.42 420.955C1029.83 420.955 1030.54 421.701 1030.54 423.193V427.096ZM1029.58 424.061L1028.13 424.26C1027.68 424.322 1027.35 424.434 1027.12 424.594C1026.89 424.75 1026.78 425.029 1026.78 425.432C1026.78 425.725 1026.88 425.965 1027.09 426.152C1027.3 426.336 1027.58 426.428 1027.93 426.428C1028.41 426.428 1028.8 426.262 1029.11 425.93C1029.42 425.594 1029.58 425.17 1029.58 424.658V424.061ZM1035.48 422.068C1035.31 421.939 1035.07 421.875 1034.75 421.875C1034.34 421.875 1034 422.068 1033.72 422.455C1033.44 422.842 1033.31 423.369 1033.31 424.037V427.096H1032.35V421.096H1033.31V422.332H1033.33C1033.47 421.91 1033.68 421.582 1033.96 421.348C1034.24 421.109 1034.55 420.99 1034.9 420.99C1035.15 420.99 1035.34 421.018 1035.48 421.072V422.068ZM1040.07 420.896C1040.07 420.639 1040.03 420.414 1039.95 420.223C1039.87 420.031 1039.76 419.873 1039.62 419.748C1039.48 419.619 1039.32 419.523 1039.13 419.461C1038.94 419.398 1038.74 419.367 1038.52 419.367C1038.34 419.367 1038.15 419.393 1037.97 419.443C1037.79 419.494 1037.62 419.564 1037.44 419.654C1037.28 419.744 1037.11 419.852 1036.95 419.977C1036.8 420.102 1036.65 420.24 1036.51 420.393V419.361C1036.78 419.1 1037.08 418.9 1037.42 418.764C1037.75 418.623 1038.16 418.553 1038.64 418.553C1038.98 418.553 1039.3 418.604 1039.6 418.705C1039.89 418.803 1040.14 418.947 1040.36 419.139C1040.57 419.33 1040.74 419.566 1040.86 419.848C1040.99 420.129 1041.05 420.451 1041.05 420.814C1041.05 421.146 1041.01 421.447 1040.93 421.717C1040.86 421.986 1040.74 422.24 1040.59 422.479C1040.43 422.717 1040.24 422.945 1040.01 423.164C1039.77 423.383 1039.5 423.605 1039.18 423.832C1038.78 424.113 1038.46 424.354 1038.2 424.553C1037.95 424.752 1037.74 424.939 1037.59 425.115C1037.44 425.287 1037.34 425.461 1037.27 425.637C1037.22 425.809 1037.19 426.008 1037.19 426.234H1041.37V427.096H1036.18V426.68C1036.18 426.32 1036.22 426.004 1036.3 425.73C1036.38 425.457 1036.51 425.197 1036.69 424.951C1036.87 424.705 1037.1 424.459 1037.39 424.213C1037.68 423.967 1038.04 423.689 1038.46 423.381C1038.77 423.162 1039.02 422.953 1039.23 422.754C1039.43 422.555 1039.6 422.355 1039.72 422.156C1039.85 421.957 1039.94 421.756 1039.99 421.553C1040.04 421.346 1040.07 421.127 1040.07 420.896ZM1046.54 420.896C1046.54 420.639 1046.5 420.414 1046.42 420.223C1046.34 420.031 1046.23 419.873 1046.09 419.748C1045.95 419.619 1045.79 419.523 1045.6 419.461C1045.41 419.398 1045.21 419.367 1044.99 419.367C1044.8 419.367 1044.62 419.393 1044.44 419.443C1044.26 419.494 1044.09 419.564 1043.91 419.654C1043.75 419.744 1043.58 419.852 1043.42 419.977C1043.26 420.102 1043.12 420.24 1042.98 420.393V419.361C1043.25 419.1 1043.55 418.9 1043.88 418.764C1044.22 418.623 1044.63 418.553 1045.11 418.553C1045.45 418.553 1045.77 418.604 1046.06 418.705C1046.36 418.803 1046.61 418.947 1046.83 419.139C1047.04 419.33 1047.21 419.566 1047.33 419.848C1047.45 420.129 1047.52 420.451 1047.52 420.814C1047.52 421.146 1047.48 421.447 1047.4 421.717C1047.33 421.986 1047.21 422.24 1047.05 422.479C1046.9 422.717 1046.71 422.945 1046.47 423.164C1046.24 423.383 1045.96 423.605 1045.65 423.832C1045.25 424.113 1044.93 424.354 1044.67 424.553C1044.42 424.752 1044.21 424.939 1044.06 425.115C1043.91 425.287 1043.81 425.461 1043.74 425.637C1043.68 425.809 1043.66 426.008 1043.66 426.234H1047.84V427.096H1042.65V426.68C1042.65 426.32 1042.69 426.004 1042.77 425.73C1042.85 425.457 1042.98 425.197 1043.16 424.951C1043.34 424.705 1043.57 424.459 1043.86 424.213C1044.15 423.967 1044.51 423.689 1044.93 423.381C1045.24 423.162 1045.49 422.953 1045.69 422.754C1045.9 422.555 1046.07 422.355 1046.19 422.156C1046.32 421.957 1046.41 421.756 1046.46 421.553C1046.51 421.346 1046.54 421.127 1046.54 420.896Z" fill="#959595"/>
<rect x="990.926" y="112.078" width="81.1205" height="284.546" fill="#D9D9D9"/>
<path d="M1231.49 424.084C1231.49 425.08 1231.28 425.855 1230.86 426.41C1230.43 426.961 1229.87 427.236 1229.16 427.236C1228.83 427.236 1228.57 427.189 1228.35 427.096V426.123C1228.57 426.275 1228.84 426.352 1229.17 426.352C1230.06 426.352 1230.5 425.6 1230.5 424.096V418.693H1231.49V424.084ZM1238.35 427.096H1237.39V426.146H1237.37C1236.97 426.873 1236.35 427.236 1235.51 427.236C1234.08 427.236 1233.37 426.385 1233.37 424.682V421.096H1234.32V424.529C1234.32 425.795 1234.81 426.428 1235.78 426.428C1236.25 426.428 1236.63 426.256 1236.93 425.912C1237.24 425.564 1237.39 425.111 1237.39 424.553V421.096H1238.35V427.096ZM1245.28 427.096H1244.32V423.674C1244.32 422.4 1243.85 421.764 1242.92 421.764C1242.44 421.764 1242.04 421.945 1241.73 422.309C1241.41 422.668 1241.26 423.123 1241.26 423.674V427.096H1240.3V421.096H1241.26V422.092H1241.28C1241.73 421.334 1242.39 420.955 1243.25 420.955C1243.9 420.955 1244.41 421.168 1244.75 421.594C1245.1 422.016 1245.28 422.627 1245.28 423.428V427.096ZM1250.64 420.896C1250.64 420.639 1250.6 420.414 1250.52 420.223C1250.44 420.031 1250.33 419.873 1250.19 419.748C1250.06 419.619 1249.89 419.523 1249.71 419.461C1249.52 419.398 1249.32 419.367 1249.1 419.367C1248.91 419.367 1248.73 419.393 1248.55 419.443C1248.37 419.494 1248.19 419.564 1248.02 419.654C1247.85 419.744 1247.69 419.852 1247.53 419.977C1247.37 420.102 1247.22 420.24 1247.09 420.393V419.361C1247.36 419.1 1247.66 418.9 1247.99 418.764C1248.32 418.623 1248.73 418.553 1249.21 418.553C1249.56 418.553 1249.88 418.604 1250.17 418.705C1250.46 418.803 1250.72 418.947 1250.93 419.139C1251.15 419.33 1251.31 419.566 1251.43 419.848C1251.56 420.129 1251.62 420.451 1251.62 420.814C1251.62 421.146 1251.58 421.447 1251.5 421.717C1251.43 421.986 1251.32 422.24 1251.16 422.479C1251.01 422.717 1250.81 422.945 1250.58 423.164C1250.34 423.383 1250.07 423.605 1249.75 423.832C1249.36 424.113 1249.03 424.354 1248.77 424.553C1248.52 424.752 1248.32 424.939 1248.16 425.115C1248.02 425.287 1247.91 425.461 1247.85 425.637C1247.79 425.809 1247.76 426.008 1247.76 426.234H1251.94V427.096H1246.76V426.68C1246.76 426.32 1246.8 426.004 1246.88 425.73C1246.95 425.457 1247.08 425.197 1247.26 424.951C1247.44 424.705 1247.68 424.459 1247.97 424.213C1248.26 423.967 1248.62 423.689 1249.04 423.381C1249.34 423.162 1249.6 422.953 1249.8 422.754C1250.01 422.555 1250.17 422.355 1250.3 422.156C1250.42 421.957 1250.51 421.756 1250.56 421.553C1250.62 421.346 1250.64 421.127 1250.64 420.896ZM1257.11 420.896C1257.11 420.639 1257.07 420.414 1256.99 420.223C1256.91 420.031 1256.8 419.873 1256.66 419.748C1256.52 419.619 1256.36 419.523 1256.17 419.461C1255.99 419.398 1255.78 419.367 1255.57 419.367C1255.38 419.367 1255.19 419.393 1255.01 419.443C1254.83 419.494 1254.66 419.564 1254.49 419.654C1254.32 419.744 1254.15 419.852 1253.99 419.977C1253.84 420.102 1253.69 420.24 1253.56 420.393V419.361C1253.82 419.1 1254.13 418.9 1254.46 418.764C1254.79 418.623 1255.2 418.553 1255.68 418.553C1256.03 418.553 1256.34 418.604 1256.64 418.705C1256.93 418.803 1257.18 418.947 1257.4 419.139C1257.61 419.33 1257.78 419.566 1257.9 419.848C1258.03 420.129 1258.09 420.451 1258.09 420.814C1258.09 421.146 1258.05 421.447 1257.97 421.717C1257.9 421.986 1257.78 422.24 1257.63 422.479C1257.48 422.717 1257.28 422.945 1257.05 423.164C1256.81 423.383 1256.54 423.605 1256.22 423.832C1255.83 424.113 1255.5 424.354 1255.24 424.553C1254.99 424.752 1254.79 424.939 1254.63 425.115C1254.48 425.287 1254.38 425.461 1254.32 425.637C1254.26 425.809 1254.23 426.008 1254.23 426.234H1258.41V427.096H1253.23V426.68C1253.23 426.32 1253.27 426.004 1253.34 425.73C1253.42 425.457 1253.55 425.197 1253.73 424.951C1253.91 424.705 1254.15 424.459 1254.43 424.213C1254.73 423.967 1255.08 423.689 1255.51 423.381C1255.81 423.162 1256.07 422.953 1256.27 422.754C1256.48 422.555 1256.64 422.355 1256.77 422.156C1256.89 421.957 1256.98 421.756 1257.03 421.553C1257.08 421.346 1257.11 421.127 1257.11 420.896Z" fill="#959595"/>
<rect x="1203.09" y="264.335" width="81.1205" height="132.289" fill="#D9D9D9"/>
<defs>
<filter id="filter0_d_148_3" x="0" y="0" width="1420" height="482" filterUnits="userSpaceOnUse" color-interpolation-filters="sRGB">
<feFlood flood-opacity="0" result="BackgroundImageFix"/>
<feColorMatrix in="SourceAlpha" type="matrix" values="0 0 0 0 0 0 0 0 0 0 0 0 0 0 0 0 0 0 127 0" result="hardAlpha"/>
<feOffset dy="2"/>
<feGaussianBlur stdDeviation="3"/>
<feComposite in2="hardAlpha" operator="out"/>
<feColorMatrix type="matrix" values="0 0 0 0 0 0 0 0 0 0 0 0 0 0 0 0 0 0 0.12 0"/>
<feBlend mode="normal" in2="BackgroundImageFix" result="effect1_dropShadow_148_3"/>
<feBlend mode="normal" in="SourceGraphic" in2="effect1_dropShadow_148_3" result="shape"/>
</filter>
</defs>
</svg>
