<svg width="601" height="600" viewBox="0 0 601 600" fill="none" xmlns="http://www.w3.org/2000/svg">
<path d="M512.932 300C512.932 327.858 507.445 355.442 496.784 381.179C486.124 406.916 470.498 430.302 450.8 450L300.8 300H512.932Z" fill="#A155B9"/>
<path d="M450.8 450C427.7 473.099 399.578 490.552 368.626 500.997C337.673 511.442 304.727 514.597 272.354 510.216C239.982 505.836 209.059 494.038 181.995 475.743C154.931 457.447 132.459 433.148 116.329 404.741C100.2 376.333 90.8488 344.584 89.0057 311.969C87.1625 279.353 92.8769 246.753 105.703 216.709C118.53 186.665 138.122 159.989 162.952 138.761C187.782 117.533 217.179 102.327 248.852 94.327L300.8 300L450.8 450Z" fill="#16BFD6"/>
<path d="M245.895 95.0964C277.625 86.5944 310.896 85.5774 343.086 92.1257C375.276 98.674 405.505 112.609 431.392 132.831C457.278 153.054 478.115 179.012 492.259 208.66C506.403 238.309 513.469 270.837 512.899 303.681L300.799 300L245.895 95.0964Z" fill="#F765A3"/>
</svg>
