<svg width="945" height="422" viewBox="0 0 945 422" fill="none" xmlns="http://www.w3.org/2000/svg">
<g filter="url(#filter0_d_148_4)">
<rect x="6" y="4" width="933" height="410" rx="8" fill="white"/>
</g>
<path d="M88 91L89 372" stroke="#787389" stroke-opacity="0.2" stroke-miterlimit="10"/>
<path d="M6 372H939" stroke="#787389" stroke-opacity="0.2" stroke-miterlimit="10"/>
<rect x="140" y="382" width="46" height="22" rx="5" fill="#D9D9D9"/>
<path d="M155.143 395.689V394.652C155.717 395.105 156.365 395.332 157.088 395.332C157.674 395.332 158.141 395.186 158.488 394.893C158.84 394.6 159.016 394.205 159.016 393.709C159.016 392.611 158.236 392.062 156.678 392.062H155.98V391.248H156.643C158.029 391.248 158.723 390.732 158.723 389.701C158.723 388.748 158.193 388.271 157.135 388.271C156.545 388.271 155.988 388.473 155.465 388.875V387.938C156.004 387.617 156.641 387.457 157.375 387.457C158.082 387.457 158.646 387.645 159.068 388.02C159.494 388.395 159.707 388.875 159.707 389.461C159.707 390.566 159.145 391.277 158.02 391.594V391.617C158.625 391.676 159.105 391.889 159.461 392.256C159.82 392.619 160 393.074 160 393.621C160 394.375 159.729 394.984 159.186 395.449C158.646 395.91 157.934 396.141 157.047 396.141C156.25 396.141 155.615 395.99 155.143 395.689ZM170.512 396H169.533V390.363C169.533 389.918 169.561 389.373 169.615 388.729H169.592C169.498 389.107 169.414 389.379 169.34 389.543L166.469 396H165.988L163.123 389.59C163.041 389.402 162.957 389.115 162.871 388.729H162.848C162.879 389.064 162.895 389.613 162.895 390.375V396H161.945V387.598H163.246L165.824 393.457C166.023 393.906 166.152 394.242 166.211 394.465H166.246C166.414 394.004 166.549 393.66 166.65 393.434L169.281 387.598H170.512V396Z" fill="#4D4D4D"/>
<path d="M286.363 393.334C286.363 393.744 286.297 394.121 286.164 394.465C286.031 394.809 285.848 395.105 285.613 395.355C285.379 395.605 285.1 395.801 284.775 395.941C284.451 396.078 284.1 396.146 283.721 396.146C283.299 396.146 282.92 396.059 282.584 395.883C282.252 395.707 281.969 395.455 281.734 395.127C281.504 394.795 281.328 394.391 281.207 393.914C281.086 393.438 281.025 392.9 281.025 392.303C281.025 391.572 281.105 390.91 281.266 390.316C281.43 389.719 281.66 389.209 281.957 388.787C282.258 388.361 282.619 388.033 283.041 387.803C283.463 387.572 283.934 387.457 284.453 387.457C285.031 387.457 285.496 387.537 285.848 387.697V388.605C285.414 388.383 284.957 388.271 284.477 388.271C284.102 388.271 283.764 388.355 283.463 388.523C283.162 388.691 282.904 388.93 282.689 389.238C282.475 389.543 282.309 389.912 282.191 390.346C282.078 390.779 282.021 391.262 282.021 391.793H282.045C282.432 391.094 283.07 390.744 283.961 390.744C284.328 390.744 284.658 390.807 284.951 390.932C285.248 391.057 285.5 391.234 285.707 391.465C285.918 391.691 286.08 391.963 286.193 392.279C286.307 392.596 286.363 392.947 286.363 393.334ZM285.379 393.457C285.379 393.164 285.342 392.9 285.268 392.666C285.193 392.432 285.086 392.232 284.945 392.068C284.809 391.904 284.639 391.779 284.436 391.693C284.232 391.604 284.002 391.559 283.744 391.559C283.506 391.559 283.285 391.604 283.082 391.693C282.879 391.783 282.703 391.906 282.555 392.062C282.406 392.215 282.289 392.395 282.203 392.602C282.121 392.805 282.08 393.021 282.08 393.252C282.08 393.541 282.121 393.812 282.203 394.066C282.285 394.316 282.4 394.535 282.549 394.723C282.697 394.91 282.873 395.059 283.076 395.168C283.283 395.273 283.512 395.326 283.762 395.326C284.004 395.326 284.225 395.281 284.424 395.191C284.623 395.098 284.793 394.969 284.934 394.805C285.074 394.641 285.184 394.445 285.262 394.219C285.34 393.988 285.379 393.734 285.379 393.457ZM296.512 396H295.533V390.363C295.533 389.918 295.561 389.373 295.615 388.729H295.592C295.498 389.107 295.414 389.379 295.34 389.543L292.469 396H291.988L289.123 389.59C289.041 389.402 288.957 389.115 288.871 388.729H288.848C288.879 389.064 288.895 389.613 288.895 390.375V396H287.945V387.598H289.246L291.824 393.457C292.023 393.906 292.152 394.242 292.211 394.465H292.246C292.414 394.004 292.549 393.66 292.65 393.434L295.281 387.598H296.512V396Z" fill="#959595"/>
<path d="M408.275 387.598L405.504 392.895V396H404.52V392.918L401.818 387.598H402.938L404.818 391.395C404.842 391.441 404.91 391.613 405.023 391.91H405.041C405.08 391.777 405.154 391.605 405.264 391.395L407.232 387.598H408.275ZM414.65 388.488H412.225V396H411.24V388.488H408.82V387.598H414.65V388.488ZM415.975 396V387.598H418.295C421.256 387.598 422.736 388.963 422.736 391.693C422.736 392.99 422.324 394.033 421.5 394.822C420.68 395.607 419.58 396 418.201 396H415.975ZM416.959 388.488V395.109H418.213C419.314 395.109 420.172 394.814 420.785 394.225C421.398 393.635 421.705 392.799 421.705 391.717C421.705 389.564 420.561 388.488 418.271 388.488H416.959Z" fill="#959595"/>
<path d="M532.1 396H531.139V388.74C531.064 388.814 530.955 388.9 530.811 388.998C530.67 389.092 530.51 389.186 530.33 389.279C530.154 389.373 529.967 389.461 529.768 389.543C529.572 389.625 529.381 389.689 529.193 389.736V388.764C529.404 388.705 529.627 388.627 529.861 388.529C530.1 388.428 530.332 388.316 530.559 388.195C530.789 388.07 531.006 387.941 531.209 387.809C531.412 387.672 531.588 387.539 531.736 387.41H532.1V396ZM540.889 387.598L538.117 392.895V396H537.133V392.918L534.432 387.598H535.551L537.432 391.395C537.455 391.441 537.523 391.613 537.637 391.91H537.654C537.693 391.777 537.768 391.605 537.877 391.395L539.846 387.598H540.889ZM548.084 396H546.912L545.506 393.645C545.377 393.426 545.252 393.24 545.131 393.088C545.01 392.932 544.885 392.805 544.756 392.707C544.631 392.609 544.494 392.539 544.346 392.496C544.201 392.449 544.037 392.426 543.854 392.426H543.045V396H542.061V387.598H544.568C544.936 387.598 545.273 387.645 545.582 387.738C545.895 387.828 546.164 387.967 546.391 388.154C546.621 388.342 546.801 388.576 546.93 388.857C547.059 389.135 547.123 389.461 547.123 389.836C547.123 390.129 547.078 390.398 546.988 390.645C546.902 390.887 546.777 391.104 546.613 391.295C546.453 391.486 546.258 391.65 546.027 391.787C545.801 391.92 545.545 392.023 545.26 392.098V392.121C545.4 392.184 545.521 392.256 545.623 392.338C545.729 392.416 545.828 392.51 545.922 392.619C546.016 392.729 546.107 392.854 546.197 392.994C546.291 393.131 546.395 393.291 546.508 393.475L548.084 396ZM543.045 388.488V391.535H544.381C544.627 391.535 544.854 391.498 545.061 391.424C545.271 391.35 545.453 391.244 545.605 391.107C545.758 390.967 545.877 390.797 545.963 390.598C546.049 390.395 546.092 390.168 546.092 389.918C546.092 389.469 545.945 389.119 545.652 388.869C545.363 388.615 544.943 388.488 544.393 388.488H543.045Z" fill="#959595"/>
<path d="M670.941 393.621C670.941 394 670.869 394.346 670.725 394.658C670.584 394.967 670.383 395.232 670.121 395.455C669.863 395.674 669.553 395.844 669.189 395.965C668.826 396.086 668.426 396.146 667.988 396.146C667.188 396.146 666.551 395.994 666.078 395.689V394.658C666.645 395.104 667.293 395.326 668.023 395.326C668.316 395.326 668.58 395.289 668.814 395.215C669.053 395.141 669.256 395.033 669.424 394.893C669.596 394.752 669.727 394.582 669.816 394.383C669.91 394.184 669.957 393.959 669.957 393.709C669.957 392.611 669.176 392.062 667.613 392.062H666.916V391.248H667.578C668.961 391.248 669.652 390.732 669.652 389.701C669.652 388.748 669.125 388.271 668.07 388.271C667.477 388.271 666.92 388.471 666.4 388.869V387.938C666.936 387.617 667.572 387.457 668.311 387.457C668.662 387.457 668.98 387.506 669.266 387.604C669.551 387.701 669.795 387.838 669.998 388.014C670.201 388.189 670.357 388.4 670.467 388.646C670.58 388.893 670.637 389.164 670.637 389.461C670.637 390.566 670.078 391.277 668.961 391.594V391.617C669.246 391.648 669.51 391.719 669.752 391.828C669.994 391.934 670.203 392.072 670.379 392.244C670.555 392.416 670.691 392.619 670.789 392.854C670.891 393.084 670.941 393.34 670.941 393.621ZM678.389 387.598L675.617 392.895V396H674.633V392.918L671.932 387.598H673.051L674.932 391.395C674.955 391.441 675.023 391.613 675.137 391.91H675.154C675.193 391.777 675.268 391.605 675.377 391.395L677.346 387.598H678.389ZM685.584 396H684.412L683.006 393.645C682.877 393.426 682.752 393.24 682.631 393.088C682.51 392.932 682.385 392.805 682.256 392.707C682.131 392.609 681.994 392.539 681.846 392.496C681.701 392.449 681.537 392.426 681.354 392.426H680.545V396H679.561V387.598H682.068C682.436 387.598 682.773 387.645 683.082 387.738C683.395 387.828 683.664 387.967 683.891 388.154C684.121 388.342 684.301 388.576 684.43 388.857C684.559 389.135 684.623 389.461 684.623 389.836C684.623 390.129 684.578 390.398 684.488 390.645C684.402 390.887 684.277 391.104 684.113 391.295C683.953 391.486 683.758 391.65 683.527 391.787C683.301 391.92 683.045 392.023 682.76 392.098V392.121C682.9 392.184 683.021 392.256 683.123 392.338C683.229 392.416 683.328 392.51 683.422 392.619C683.516 392.729 683.607 392.854 683.697 392.994C683.791 393.131 683.895 393.291 684.008 393.475L685.584 396ZM680.545 388.488V391.535H681.881C682.127 391.535 682.354 391.498 682.561 391.424C682.771 391.35 682.953 391.244 683.105 391.107C683.258 390.967 683.377 390.797 683.463 390.598C683.549 390.395 683.592 390.168 683.592 389.918C683.592 389.469 683.445 389.119 683.152 388.869C682.863 388.615 682.443 388.488 681.893 388.488H680.545Z" fill="#959595"/>
<path d="M820.535 393.434C820.535 393.844 820.465 394.215 820.324 394.547C820.184 394.879 819.982 395.164 819.721 395.402C819.463 395.641 819.15 395.824 818.783 395.953C818.416 396.082 818.008 396.146 817.559 396.146C816.777 396.146 816.197 396.029 815.818 395.795V394.775C816.389 395.143 816.973 395.326 817.57 395.326C817.875 395.326 818.148 395.281 818.391 395.191C818.637 395.102 818.846 394.977 819.018 394.816C819.189 394.656 819.32 394.463 819.41 394.236C819.504 394.01 819.551 393.762 819.551 393.492C819.551 392.945 819.367 392.518 819 392.209C818.633 391.896 818.1 391.74 817.4 391.74C817.287 391.74 817.168 391.742 817.043 391.746C816.918 391.75 816.793 391.756 816.668 391.764C816.543 391.768 816.42 391.773 816.299 391.781C816.182 391.789 816.074 391.799 815.977 391.811L816.264 387.598H820.148V388.465H817.096L816.926 390.932C817.051 390.924 817.184 390.918 817.324 390.914C817.465 390.906 817.59 390.902 817.699 390.902C818.145 390.902 818.543 390.961 818.895 391.078C819.246 391.195 819.543 391.363 819.785 391.582C820.031 391.797 820.217 392.062 820.342 392.379C820.471 392.691 820.535 393.043 820.535 393.434ZM827.889 387.598L825.117 392.895V396H824.133V392.918L821.432 387.598H822.551L824.432 391.395C824.455 391.441 824.523 391.613 824.637 391.91H824.654C824.693 391.777 824.768 391.605 824.877 391.395L826.846 387.598H827.889ZM835.084 396H833.912L832.506 393.645C832.377 393.426 832.252 393.24 832.131 393.088C832.01 392.932 831.885 392.805 831.756 392.707C831.631 392.609 831.494 392.539 831.346 392.496C831.201 392.449 831.037 392.426 830.854 392.426H830.045V396H829.061V387.598H831.568C831.936 387.598 832.273 387.645 832.582 387.738C832.895 387.828 833.164 387.967 833.391 388.154C833.621 388.342 833.801 388.576 833.93 388.857C834.059 389.135 834.123 389.461 834.123 389.836C834.123 390.129 834.078 390.398 833.988 390.645C833.902 390.887 833.777 391.104 833.613 391.295C833.453 391.486 833.258 391.65 833.027 391.787C832.801 391.92 832.545 392.023 832.26 392.098V392.121C832.4 392.184 832.521 392.256 832.623 392.338C832.729 392.416 832.828 392.51 832.922 392.619C833.016 392.729 833.107 392.854 833.197 392.994C833.291 393.131 833.395 393.291 833.508 393.475L835.084 396ZM830.045 388.488V391.535H831.381C831.627 391.535 831.854 391.498 832.061 391.424C832.271 391.35 832.453 391.244 832.605 391.107C832.758 390.967 832.877 390.797 832.963 390.598C833.049 390.395 833.092 390.168 833.092 389.918C833.092 389.469 832.945 389.119 832.652 388.869C832.363 388.615 831.943 388.488 831.393 388.488H830.045Z" fill="#959595"/>
<path d="M46.4141 271.844C46.4141 272.615 46.1615 273.229 45.6562 273.687C45.1458 274.146 44.4661 274.375 43.6172 274.375C42.6901 274.375 41.9609 274.133 41.4297 273.648C40.8932 273.164 40.625 272.51 40.625 271.687C40.625 270.891 40.8724 270.273 41.3672 269.836C41.862 269.393 42.5573 269.172 43.4531 269.172C44.349 269.172 45.0677 269.419 45.6094 269.914C46.1458 270.404 46.4141 271.047 46.4141 271.844ZM41.4844 271.734C41.4844 272.229 41.6693 272.62 42.0391 272.906C42.4036 273.193 42.9062 273.336 43.5469 273.336C44.1771 273.336 44.6693 273.195 45.0234 272.914C45.3724 272.633 45.5469 272.25 45.5469 271.766C45.5469 271.276 45.3646 270.893 45 270.617C44.6354 270.341 44.1302 270.203 43.4844 270.203C42.8542 270.203 42.3646 270.341 42.0156 270.617C41.6615 270.888 41.4844 271.26 41.4844 271.734ZM40.7969 264.344L52.0781 271.531L52.0781 272.648L40.7969 265.469L40.7969 264.344ZM52.1719 265.172C52.1719 265.943 51.9167 266.557 51.4062 267.016C50.8958 267.474 50.2187 267.703 49.375 267.703C48.4479 267.703 47.7161 267.458 47.1797 266.969C46.638 266.479 46.3672 265.828 46.3672 265.016C46.3672 264.224 46.6172 263.607 47.1172 263.164C47.6172 262.721 48.3177 262.5 49.2187 262.5C50.1094 262.5 50.8255 262.747 51.3672 263.242C51.9036 263.732 52.1719 264.375 52.1719 265.172ZM47.25 265.062C47.25 265.562 47.4323 265.956 47.7969 266.242C48.1615 266.523 48.6667 266.664 49.3125 266.664C49.9323 266.664 50.4193 266.523 50.7734 266.242C51.1224 265.961 51.2969 265.578 51.2969 265.094C51.2969 264.604 51.1146 264.221 50.75 263.945C50.3802 263.669 49.875 263.531 49.2344 263.531C48.599 263.531 48.1094 263.669 47.7656 263.945C47.4219 264.216 47.25 264.589 47.25 265.062ZM52 243.625L52 245.187L48.8594 247.062C48.5677 247.234 48.3203 247.401 48.1172 247.562C47.9089 247.724 47.7396 247.891 47.6094 248.062C47.4792 248.229 47.3854 248.411 47.3281 248.609C47.2656 248.802 47.2344 249.021 47.2344 249.266L47.2344 250.344L52 250.344L52 251.656L40.7969 251.656L40.7969 248.312C40.7969 247.823 40.8594 247.372 40.9844 246.961C41.1042 246.544 41.2891 246.185 41.5391 245.883C41.7891 245.576 42.1016 245.336 42.4766 245.164C42.8464 244.992 43.2812 244.906 43.7812 244.906C44.1719 244.906 44.5312 244.966 44.8594 245.086C45.1823 245.201 45.4714 245.367 45.7266 245.586C45.9818 245.799 46.2005 246.06 46.3828 246.367C46.5599 246.669 46.6979 247.01 46.7969 247.391L46.8281 247.391C46.9115 247.203 47.0078 247.042 47.1172 246.906C47.2214 246.766 47.3464 246.633 47.4922 246.508C47.638 246.383 47.8047 246.26 47.9922 246.141C48.1745 246.016 48.388 245.878 48.6328 245.727L52 243.625ZM41.9844 250.344L46.0469 250.344L46.0469 248.562C46.0469 248.234 45.9974 247.932 45.8984 247.656C45.7995 247.375 45.6589 247.133 45.4766 246.93C45.2891 246.727 45.0625 246.568 44.7969 246.453C44.526 246.339 44.224 246.281 43.8906 246.281C43.2917 246.281 42.8255 246.477 42.4922 246.867C42.1536 247.253 41.9844 247.812 41.9844 248.547L41.9844 250.344ZM48.3203 236.289L48.3203 241.937C49.2109 241.917 49.8984 241.677 50.3828 241.219C50.8672 240.76 51.1094 240.13 51.1094 239.328C51.1094 238.427 50.8125 237.599 50.2187 236.844L51.4219 236.844C51.9323 237.547 52.1875 238.477 52.1875 239.633C52.1875 240.763 51.8255 241.651 51.1016 242.297C50.3724 242.943 49.349 243.266 48.0312 243.266C46.7865 243.266 45.7734 242.914 44.9922 242.211C44.2057 241.503 43.8125 240.625 43.8125 239.578C43.8125 238.531 44.151 237.721 44.8281 237.148C45.5052 236.576 46.4453 236.289 47.6484 236.289L48.3203 236.289ZM47.2344 237.602C46.4948 237.607 45.9193 237.786 45.5078 238.141C45.0964 238.49 44.8906 238.977 44.8906 239.602C44.8906 240.206 45.1068 240.719 45.5391 241.141C45.9714 241.562 46.5365 241.823 47.2344 241.922L47.2344 237.602ZM51.9219 230.633C52.0885 230.935 52.1719 231.333 52.1719 231.828C52.1719 233.229 51.3906 233.93 49.8281 233.93L45.0937 233.93L45.0937 235.305L44 235.305L44 233.93L42.0469 233.93L41.6328 232.648L44 232.648L44 230.633L45.0937 230.633L45.0937 232.648L49.6016 232.648C50.138 232.648 50.5208 232.557 50.75 232.375C50.9792 232.193 51.0937 231.891 51.0937 231.469C51.0937 231.146 51.0052 230.867 50.8281 230.633L51.9219 230.633ZM52 222.453L52 223.734L50.7344 223.734L50.7344 223.766C51.7031 224.297 52.1875 225.12 52.1875 226.234C52.1875 228.141 51.0521 229.094 48.7812 229.094L44 229.094L44 227.82L48.5781 227.82C50.2656 227.82 51.1094 227.174 51.1094 225.883C51.1094 225.258 50.8802 224.745 50.4219 224.344C49.9583 223.937 49.3542 223.734 48.6094 223.734L44 223.734L44 222.453L52 222.453ZM45.2969 215.687C45.125 215.911 45.0391 216.234 45.0391 216.656C45.0391 217.203 45.2969 217.661 45.8125 218.031C46.3281 218.396 47.0312 218.578 47.9219 218.578L52 218.578L52 219.859L44 219.859L44 218.578L45.6484 218.578L45.6484 218.547C45.0859 218.365 44.6484 218.086 44.3359 217.711C44.0182 217.336 43.8594 216.917 43.8594 216.453C43.8594 216.12 43.8958 215.865 43.9687 215.687L45.2969 215.687ZM52 207.656L52 208.937L47.4375 208.937C45.7396 208.937 44.8906 209.557 44.8906 210.797C44.8906 211.437 45.1328 211.969 45.6172 212.391C46.0964 212.807 46.7031 213.016 47.4375 213.016L52 213.016L52 214.297L44 214.297L44 213.016L45.3281 213.016L45.3281 212.984C44.3177 212.38 43.8125 211.505 43.8125 210.359C43.8125 209.484 44.0964 208.815 44.6641 208.352C45.2266 207.888 46.0417 207.656 47.1094 207.656L52 207.656ZM51.7109 205.719L50.3359 205.719C50.8516 205.021 51.1094 204.253 51.1094 203.414C51.1094 202.289 50.7344 201.727 49.9844 201.727C49.7708 201.727 49.5911 201.776 49.4453 201.875C49.2943 201.969 49.1615 202.099 49.0469 202.266C48.9323 202.427 48.8307 202.62 48.7422 202.844C48.6484 203.062 48.5521 203.299 48.4531 203.555C48.3125 203.909 48.1719 204.221 48.0312 204.492C47.8854 204.758 47.724 204.982 47.5469 205.164C47.3646 205.341 47.1589 205.477 46.9297 205.57C46.7005 205.659 46.4323 205.703 46.125 205.703C45.75 205.703 45.4193 205.617 45.1328 205.445C44.8411 205.273 44.599 205.044 44.4062 204.758C44.2083 204.471 44.0599 204.146 43.9609 203.781C43.862 203.411 43.8125 203.031 43.8125 202.641C43.8125 201.948 43.9323 201.328 44.1719 200.781L45.4687 200.781C45.0833 201.37 44.8906 202.047 44.8906 202.812C44.8906 203.052 44.9193 203.268 44.9766 203.461C45.0286 203.654 45.1042 203.82 45.2031 203.961C45.3021 204.096 45.4219 204.203 45.5625 204.281C45.6979 204.354 45.849 204.391 46.0156 204.391C46.224 204.391 46.3984 204.354 46.5391 204.281C46.6797 204.203 46.8047 204.091 46.9141 203.945C47.0234 203.799 47.1224 203.622 47.2109 203.414C47.2995 203.206 47.3958 202.969 47.5 202.703C47.6354 202.349 47.776 202.031 47.9219 201.75C48.0625 201.469 48.224 201.229 48.4062 201.031C48.5833 200.833 48.7891 200.682 49.0234 200.578C49.2578 200.469 49.5365 200.414 49.8594 200.414C50.2552 200.414 50.599 200.503 50.8906 200.68C51.1823 200.852 51.4245 201.083 51.6172 201.375C51.8099 201.667 51.9531 202.003 52.0469 202.383C52.1406 202.763 52.1875 203.161 52.1875 203.578C52.1875 204.401 52.0286 205.115 51.7109 205.719Z" fill="#959595"/>
<g clip-path="url(#clip0_148_4)">
<path d="M93.9927 262.791C105.798 239.171 128.33 233.612 164.813 246.117C219.537 264.875 225.977 269.878 256.557 249.035C287.138 228.192 344.276 262.791 356.348 262.791C368.42 262.791 376.469 263.209 403.03 219.855C429.591 176.502 467.411 169.416 513.283 224.024C541.45 262.791 581.689 261.541 606.636 242.782C631.584 224.024 676.651 255.29 695.161 262.791C713.671 270.293 774.833 269.045 821.502 227.359C868.172 185.673 930.952 231.121 939 244.46" stroke="#959595" stroke-width="3" stroke-miterlimit="10" stroke-linecap="round"/>
<path d="M90.3325 262.632C90.3325 262.632 131.223 219.12 213.804 262.632C248.377 287.212 273.87 286.146 292.431 276.054C308.023 267.58 318.596 252.481 325.249 241.294C339.68 217.028 393.399 216.609 424.667 251.335C446.318 278.946 499.232 266.815 504.042 234.599C508.853 202.384 573.795 229.161 589.029 192.761C604.263 156.362 633.927 131.259 691.654 188.577C749.381 245.896 766.217 201.966 791.874 189.832C817.53 177.699 833.566 198.2 868.841 249.243C878.461 268.488 931.377 263.887 937.792 278.112" stroke="#959595" stroke-width="1.5" stroke-miterlimit="10" stroke-linecap="round" stroke-dasharray="6 6"/>
</g>
<path d="M454.907 194.944C461.799 194.944 467.387 189.357 467.387 182.464C467.387 175.571 461.799 169.984 454.907 169.984C448.014 169.984 442.427 175.571 442.427 182.464C442.427 189.357 448.014 194.944 454.907 194.944Z" fill="#F5F5F5"/>
<path d="M454.907 188.704C458.353 188.704 461.147 185.91 461.147 182.464C461.147 179.018 458.353 176.224 454.907 176.224C451.46 176.224 448.667 179.018 448.667 182.464C448.667 185.91 451.46 188.704 454.907 188.704Z" fill="#959595"/>
<g filter="url(#filter1_d_148_4)">
<path d="M453.237 168.025L447.676 162.483C447.332 162.147 447.095 161.718 446.992 161.248H411.85C409.864 161.248 407.96 160.459 406.556 159.055C405.151 157.65 404.362 155.746 404.362 153.76V133.792C404.362 131.806 405.151 129.901 406.556 128.497C407.96 127.093 409.864 126.304 411.85 126.304H497.963C499.949 126.304 501.853 127.093 503.258 128.497C504.662 129.901 505.451 131.806 505.451 133.792V153.76C505.451 155.746 504.662 157.65 503.258 159.055C501.853 160.459 499.949 161.248 497.963 161.248H463.005C462.902 161.718 462.664 162.147 462.32 162.483L456.76 168.025C456.292 168.491 455.659 168.752 454.998 168.752C454.338 168.752 453.705 168.491 453.237 168.025Z" fill="white"/>
</g>
<path d="M437.074 142.983C437.074 143.552 436.965 144.07 436.748 144.539C436.538 145.002 436.236 145.4 435.843 145.734C435.456 146.062 434.991 146.317 434.446 146.499C433.901 146.681 433.3 146.771 432.644 146.771C431.443 146.771 430.488 146.543 429.779 146.086V144.539C430.628 145.207 431.601 145.541 432.697 145.541C433.136 145.541 433.532 145.485 433.883 145.374C434.241 145.263 434.545 145.102 434.797 144.891C435.055 144.68 435.251 144.425 435.386 144.126C435.527 143.827 435.597 143.49 435.597 143.115C435.597 141.469 434.425 140.646 432.081 140.646H431.036V139.424H432.029C434.103 139.424 435.14 138.65 435.14 137.104C435.14 135.674 434.349 134.959 432.767 134.959C431.876 134.959 431.041 135.258 430.262 135.855V134.458C431.065 133.978 432.02 133.737 433.127 133.737C433.655 133.737 434.132 133.811 434.56 133.957C434.988 134.104 435.354 134.309 435.659 134.572C435.963 134.836 436.198 135.152 436.362 135.521C436.532 135.891 436.617 136.298 436.617 136.743C436.617 138.401 435.779 139.468 434.103 139.942V139.978C434.531 140.024 434.926 140.13 435.289 140.294C435.653 140.452 435.966 140.66 436.23 140.918C436.494 141.176 436.699 141.48 436.845 141.832C436.997 142.178 437.074 142.562 437.074 142.983ZM446.777 142.983C446.777 143.552 446.668 144.07 446.452 144.539C446.241 145.002 445.939 145.4 445.546 145.734C445.16 146.062 444.694 146.317 444.149 146.499C443.604 146.681 443.003 146.771 442.347 146.771C441.146 146.771 440.191 146.543 439.482 146.086V144.539C440.331 145.207 441.304 145.541 442.4 145.541C442.839 145.541 443.235 145.485 443.586 145.374C443.944 145.263 444.248 145.102 444.5 144.891C444.758 144.68 444.955 144.425 445.089 144.126C445.23 143.827 445.3 143.49 445.3 143.115C445.3 141.469 444.128 140.646 441.785 140.646H440.739V139.424H441.732C443.806 139.424 444.843 138.65 444.843 137.104C444.843 135.674 444.052 134.959 442.47 134.959C441.58 134.959 440.745 135.258 439.965 135.855V134.458C440.768 133.978 441.723 133.737 442.83 133.737C443.358 133.737 443.835 133.811 444.263 133.957C444.691 134.104 445.057 134.309 445.362 134.572C445.666 134.836 445.901 135.152 446.065 135.521C446.235 135.891 446.32 136.298 446.32 136.743C446.32 138.401 445.482 139.468 443.806 139.942V139.978C444.234 140.024 444.629 140.13 444.993 140.294C445.356 140.452 445.669 140.66 445.933 140.918C446.197 141.176 446.402 141.48 446.548 141.832C446.701 142.178 446.777 142.562 446.777 142.983ZM450.881 144.548L449.475 148.872H448.447L449.475 144.548H450.881ZM460.989 142.553C460.989 143.168 460.889 143.733 460.69 144.249C460.491 144.765 460.215 145.21 459.864 145.585C459.512 145.96 459.093 146.253 458.607 146.464C458.121 146.669 457.593 146.771 457.025 146.771C456.392 146.771 455.824 146.64 455.32 146.376C454.822 146.112 454.397 145.734 454.045 145.242C453.7 144.744 453.436 144.138 453.254 143.423C453.073 142.708 452.982 141.902 452.982 141.006C452.982 139.91 453.102 138.917 453.342 138.026C453.588 137.13 453.934 136.365 454.379 135.732C454.83 135.094 455.372 134.602 456.005 134.256C456.638 133.91 457.344 133.737 458.123 133.737C458.991 133.737 459.688 133.857 460.215 134.098V135.46C459.565 135.126 458.879 134.959 458.159 134.959C457.596 134.959 457.089 135.085 456.638 135.337C456.187 135.589 455.8 135.946 455.478 136.409C455.156 136.866 454.907 137.42 454.731 138.07C454.561 138.721 454.476 139.444 454.476 140.241H454.511C455.091 139.192 456.049 138.668 457.385 138.668C457.936 138.668 458.431 138.762 458.871 138.949C459.316 139.137 459.694 139.403 460.004 139.749C460.321 140.089 460.564 140.496 460.734 140.971C460.904 141.445 460.989 141.973 460.989 142.553ZM459.512 142.737C459.512 142.298 459.456 141.902 459.345 141.551C459.234 141.199 459.073 140.9 458.862 140.654C458.657 140.408 458.402 140.221 458.097 140.092C457.792 139.957 457.447 139.89 457.06 139.89C456.703 139.89 456.372 139.957 456.067 140.092C455.762 140.227 455.498 140.411 455.276 140.646C455.053 140.874 454.877 141.144 454.748 141.454C454.625 141.759 454.564 142.084 454.564 142.43C454.564 142.863 454.625 143.271 454.748 143.651C454.872 144.026 455.044 144.354 455.267 144.636C455.49 144.917 455.753 145.14 456.058 145.304C456.369 145.462 456.711 145.541 457.086 145.541C457.45 145.541 457.781 145.474 458.08 145.339C458.378 145.198 458.633 145.005 458.844 144.759C459.055 144.513 459.219 144.22 459.336 143.88C459.454 143.534 459.512 143.153 459.512 142.737ZM470.226 142.702C470.226 143.317 470.121 143.874 469.91 144.372C469.699 144.87 469.397 145.298 469.004 145.655C468.618 146.013 468.149 146.288 467.598 146.481C467.047 146.675 466.435 146.771 465.761 146.771C464.589 146.771 463.719 146.596 463.151 146.244V144.715C464.006 145.266 464.882 145.541 465.779 145.541C466.236 145.541 466.646 145.474 467.009 145.339C467.378 145.204 467.692 145.017 467.95 144.776C468.207 144.536 468.404 144.246 468.538 143.906C468.679 143.566 468.749 143.194 468.749 142.79C468.749 141.97 468.474 141.328 467.923 140.865C467.372 140.396 466.573 140.162 465.524 140.162C465.354 140.162 465.175 140.165 464.988 140.171C464.8 140.177 464.613 140.186 464.425 140.197C464.238 140.203 464.053 140.212 463.872 140.224C463.696 140.235 463.535 140.25 463.388 140.268L463.819 133.948H469.646V135.249H465.067L464.812 138.949C464.999 138.938 465.199 138.929 465.41 138.923C465.621 138.911 465.808 138.905 465.972 138.905C466.64 138.905 467.238 138.993 467.765 139.169C468.292 139.345 468.738 139.597 469.101 139.925C469.47 140.247 469.748 140.646 469.936 141.12C470.129 141.589 470.226 142.116 470.226 142.702ZM478.883 133.948V142.271H480.5V143.59H478.883V146.552H477.459V143.59H471.536V142.342C472.086 141.721 472.643 141.059 473.205 140.355C473.768 139.646 474.304 138.929 474.814 138.202C475.33 137.476 475.804 136.752 476.238 136.031C476.677 135.305 477.046 134.61 477.345 133.948H478.883ZM473.162 142.271H477.459V136.102C477.02 136.869 476.604 137.555 476.211 138.158C475.819 138.762 475.444 139.31 475.086 139.802C474.735 140.294 474.398 140.739 474.076 141.138C473.753 141.536 473.449 141.914 473.162 142.271Z" fill="#323136"/>
<rect x="490.5" y="33.5" width="93" height="56" fill="white" stroke="#F5F5F5"/>
<rect x="738.5" y="33.5" width="94" height="56" fill="white" stroke="#F5F5F5"/>
<path d="M492 61H582" stroke="#959595" stroke-width="3"/>
<path d="M740 61H831" stroke="#959595" stroke-width="1.5" stroke-dasharray="6 6"/>
<path d="M614.51 53.2363H611.68V62H610.531V53.2363H607.708V52.1973H614.51V53.2363ZM619.343 62H618.222V60.9062H618.194C617.707 61.7448 616.989 62.1641 616.041 62.1641C615.344 62.1641 614.797 61.9795 614.4 61.6104C614.008 61.2412 613.812 60.7513 613.812 60.1406C613.812 58.8327 614.583 58.0716 616.123 57.8574L618.222 57.5635C618.222 56.374 617.741 55.7793 616.779 55.7793C615.936 55.7793 615.175 56.0664 614.496 56.6406V55.4922C615.184 55.0547 615.977 54.8359 616.875 54.8359C618.52 54.8359 619.343 55.7064 619.343 57.4473V62ZM618.222 58.459L616.533 58.6914C616.014 58.7643 615.622 58.8942 615.357 59.0811C615.093 59.2633 614.961 59.5892 614.961 60.0586C614.961 60.4004 615.082 60.6807 615.323 60.8994C615.569 61.1136 615.895 61.2207 616.301 61.2207C616.857 61.2207 617.315 61.027 617.675 60.6396C618.039 60.2477 618.222 59.7533 618.222 59.1562V58.459ZM624.702 61.9316C624.438 62.0775 624.089 62.1504 623.656 62.1504C622.43 62.1504 621.817 61.4668 621.817 60.0996V55.957H620.614V55H621.817V53.291L622.938 52.9287V55H624.702V55.957H622.938V59.9014C622.938 60.3708 623.018 60.7057 623.178 60.9062C623.337 61.1068 623.602 61.207 623.971 61.207C624.253 61.207 624.497 61.1296 624.702 60.9746V61.9316ZM631.21 62H630.089V60.9062H630.062C629.574 61.7448 628.856 62.1641 627.908 62.1641C627.211 62.1641 626.664 61.9795 626.268 61.6104C625.876 61.2412 625.68 60.7513 625.68 60.1406C625.68 58.8327 626.45 58.0716 627.99 57.8574L630.089 57.5635C630.089 56.374 629.608 55.7793 628.646 55.7793C627.803 55.7793 627.042 56.0664 626.363 56.6406V55.4922C627.051 55.0547 627.844 54.8359 628.742 54.8359C630.387 54.8359 631.21 55.7064 631.21 57.4473V62ZM630.089 58.459L628.4 58.6914C627.881 58.7643 627.489 58.8942 627.225 59.0811C626.96 59.2633 626.828 59.5892 626.828 60.0586C626.828 60.4004 626.949 60.6807 627.19 60.8994C627.437 61.1136 627.762 61.2207 628.168 61.2207C628.724 61.2207 629.182 61.027 629.542 60.6396C629.907 60.2477 630.089 59.7533 630.089 59.1562V58.459ZM647.309 62H646.167V55.4238C646.167 54.9043 646.199 54.2686 646.263 53.5166H646.235C646.126 53.9587 646.028 54.2754 645.941 54.4668L642.592 62H642.031L638.688 54.5215C638.593 54.3027 638.495 53.9678 638.395 53.5166H638.367C638.404 53.9085 638.422 54.5488 638.422 55.4375V62H637.314V52.1973H638.832L641.84 59.0332C642.072 59.5573 642.223 59.9492 642.291 60.209H642.332C642.528 59.6712 642.685 59.2702 642.804 59.0059L645.873 52.1973H647.309V62ZM652.668 62.1641C651.633 62.1641 650.806 61.8382 650.187 61.1865C649.571 60.5303 649.264 59.6621 649.264 58.582C649.264 57.4062 649.585 56.488 650.228 55.8271C650.87 55.1663 651.738 54.8359 652.832 54.8359C653.876 54.8359 654.689 55.1572 655.272 55.7998C655.86 56.4424 656.154 57.3333 656.154 58.4727C656.154 59.5892 655.838 60.4847 655.204 61.1592C654.575 61.8291 653.73 62.1641 652.668 62.1641ZM652.75 55.7793C652.03 55.7793 651.46 56.0254 651.041 56.5176C650.622 57.0052 650.412 57.6797 650.412 58.541C650.412 59.3704 650.624 60.0244 651.048 60.5029C651.472 60.9814 652.039 61.2207 652.75 61.2207C653.475 61.2207 654.031 60.986 654.418 60.5166C654.81 60.0472 655.006 59.3796 655.006 58.5137C655.006 57.6387 654.81 56.9642 654.418 56.4902C654.031 56.0163 653.475 55.7793 652.75 55.7793ZM661.192 61.9316C660.928 62.0775 660.579 62.1504 660.146 62.1504C658.921 62.1504 658.308 61.4668 658.308 60.0996V55.957H657.104V55H658.308V53.291L659.429 52.9287V55H661.192V55.957H659.429V59.9014C659.429 60.3708 659.508 60.7057 659.668 60.9062C659.827 61.1068 660.092 61.207 660.461 61.207C660.743 61.207 660.987 61.1296 661.192 60.9746V61.9316ZM665.615 62.1641C664.581 62.1641 663.754 61.8382 663.134 61.1865C662.519 60.5303 662.211 59.6621 662.211 58.582C662.211 57.4062 662.532 56.488 663.175 55.8271C663.817 55.1663 664.686 54.8359 665.779 54.8359C666.823 54.8359 667.636 55.1572 668.22 55.7998C668.808 56.4424 669.102 57.3333 669.102 58.4727C669.102 59.5892 668.785 60.4847 668.151 61.1592C667.522 61.8291 666.677 62.1641 665.615 62.1641ZM665.697 55.7793C664.977 55.7793 664.408 56.0254 663.988 56.5176C663.569 57.0052 663.359 57.6797 663.359 58.541C663.359 59.3704 663.571 60.0244 663.995 60.5029C664.419 60.9814 664.986 61.2207 665.697 61.2207C666.422 61.2207 666.978 60.986 667.365 60.5166C667.757 60.0472 667.953 59.3796 667.953 58.5137C667.953 57.6387 667.757 56.9642 667.365 56.4902C666.978 56.0163 666.422 55.7793 665.697 55.7793ZM674.543 56.1348C674.347 55.9844 674.064 55.9092 673.695 55.9092C673.217 55.9092 672.816 56.1348 672.492 56.5859C672.173 57.0371 672.014 57.6523 672.014 58.4316V62H670.893V55H672.014V56.4424H672.041C672.201 55.9502 672.444 55.5674 672.772 55.2939C673.101 55.016 673.467 54.877 673.873 54.877C674.165 54.877 674.388 54.9089 674.543 54.9727V56.1348ZM675.336 61.7471V60.5439C675.947 60.9951 676.619 61.2207 677.353 61.2207C678.337 61.2207 678.829 60.8926 678.829 60.2363C678.829 60.0495 678.786 59.8923 678.699 59.7646C678.617 59.6325 678.503 59.5163 678.357 59.416C678.216 59.3158 678.048 59.2269 677.852 59.1494C677.66 59.0674 677.453 58.9831 677.229 58.8965C676.92 58.7734 676.646 58.6504 676.409 58.5273C676.177 58.3997 675.981 58.2585 675.821 58.1035C675.666 57.944 675.548 57.764 675.466 57.5635C675.388 57.363 675.35 57.1283 675.35 56.8594C675.35 56.5312 675.425 56.2419 675.575 55.9912C675.726 55.736 675.926 55.5241 676.177 55.3555C676.427 55.1823 676.712 55.0524 677.031 54.9658C677.355 54.8792 677.688 54.8359 678.029 54.8359C678.635 54.8359 679.178 54.9408 679.656 55.1504V56.2852C679.141 55.9479 678.549 55.7793 677.879 55.7793C677.669 55.7793 677.48 55.8044 677.312 55.8545C677.143 55.9001 676.997 55.9661 676.874 56.0527C676.756 56.1393 676.662 56.2441 676.594 56.3672C676.53 56.4857 676.498 56.6178 676.498 56.7637C676.498 56.946 676.53 57.0986 676.594 57.2217C676.662 57.3447 676.76 57.4541 676.888 57.5498C677.015 57.6455 677.17 57.7321 677.353 57.8096C677.535 57.887 677.742 57.9714 677.975 58.0625C678.285 58.181 678.562 58.304 678.809 58.4316C679.055 58.5547 679.264 58.696 679.438 58.8555C679.611 59.0104 679.743 59.1904 679.834 59.3955C679.93 59.6006 679.978 59.8444 679.978 60.127C679.978 60.4733 679.9 60.7741 679.745 61.0293C679.595 61.2845 679.392 61.4964 679.137 61.665C678.882 61.8337 678.588 61.959 678.255 62.041C677.922 62.123 677.574 62.1641 677.209 62.1641C676.489 62.1641 675.865 62.0251 675.336 61.7471Z" fill="#959595"/>
<path d="M857.188 62H855.779L850.734 54.1865C850.607 53.9906 850.502 53.7855 850.42 53.5713H850.379C850.415 53.7809 850.434 54.2298 850.434 54.918V62H849.285V52.1973H850.775L855.684 59.8877C855.889 60.2067 856.021 60.4255 856.08 60.5439H856.107C856.062 60.2614 856.039 59.7806 856.039 59.1016V52.1973H857.188V62ZM860.182 53.2227C859.981 53.2227 859.81 53.1543 859.669 53.0176C859.528 52.8809 859.457 52.7077 859.457 52.498C859.457 52.2884 859.528 52.1152 859.669 51.9785C859.81 51.8372 859.981 51.7666 860.182 51.7666C860.387 51.7666 860.56 51.8372 860.701 51.9785C860.847 52.1152 860.92 52.2884 860.92 52.498C860.92 52.6986 860.847 52.8695 860.701 53.0107C860.56 53.152 860.387 53.2227 860.182 53.2227ZM860.729 62H859.607V55H860.729V62ZM866.457 52.6211C866.238 52.498 865.99 52.4365 865.712 52.4365C864.928 52.4365 864.536 52.931 864.536 53.9199V55H866.177V55.957H864.536V62H863.422V55.957H862.226V55H863.422V53.8652C863.422 53.1315 863.634 52.5527 864.058 52.1289C864.481 51.7005 865.01 51.4863 865.644 51.4863C865.985 51.4863 866.257 51.5273 866.457 51.6094V52.6211ZM870.634 61.9316C870.369 62.0775 870.021 62.1504 869.588 62.1504C868.362 62.1504 867.749 61.4668 867.749 60.0996V55.957H866.546V55H867.749V53.291L868.87 52.9287V55H870.634V55.957H868.87V59.9014C868.87 60.3708 868.95 60.7057 869.109 60.9062C869.269 61.1068 869.533 61.207 869.902 61.207C870.185 61.207 870.429 61.1296 870.634 60.9746V61.9316ZM877.702 55L874.482 63.1211C873.908 64.5703 873.102 65.2949 872.062 65.2949C871.771 65.2949 871.527 65.2653 871.331 65.2061V64.2012C871.573 64.2832 871.794 64.3242 871.994 64.3242C872.559 64.3242 872.983 63.987 873.266 63.3125L873.826 61.9863L871.092 55H872.336L874.229 60.3867C874.252 60.4551 874.3 60.6328 874.373 60.9199H874.414C874.437 60.8105 874.482 60.6374 874.551 60.4004L876.54 55H877.702ZM884.401 59.0059C884.401 59.4844 884.319 59.9173 884.155 60.3047C883.991 60.6921 883.757 61.0247 883.451 61.3027C883.15 61.5807 882.786 61.7949 882.357 61.9453C881.929 62.0957 881.453 62.1709 880.929 62.1709C880.017 62.1709 879.34 62.0342 878.898 61.7607V60.5713C879.564 60.9997 880.245 61.2139 880.942 61.2139C881.298 61.2139 881.617 61.1615 881.899 61.0566C882.187 60.9518 882.43 60.806 882.631 60.6191C882.831 60.4323 882.984 60.2067 883.089 59.9424C883.198 59.6781 883.253 59.3887 883.253 59.0742C883.253 58.4362 883.039 57.9372 882.61 57.5771C882.182 57.2126 881.56 57.0303 880.744 57.0303C880.612 57.0303 880.473 57.0326 880.327 57.0371C880.181 57.0417 880.035 57.0485 879.89 57.0576C879.744 57.0622 879.6 57.069 879.459 57.0781C879.322 57.0872 879.197 57.0986 879.083 57.1123L879.418 52.1973H883.95V53.209H880.389L880.19 56.0869C880.336 56.0778 880.491 56.071 880.655 56.0664C880.819 56.0573 880.965 56.0527 881.093 56.0527C881.612 56.0527 882.077 56.1211 882.487 56.2578C882.897 56.3945 883.244 56.5905 883.526 56.8457C883.813 57.0964 884.03 57.4062 884.176 57.7754C884.326 58.14 884.401 58.5501 884.401 59.0059ZM892.297 57.0576C892.297 57.8779 892.222 58.6048 892.071 59.2383C891.925 59.8717 891.711 60.4072 891.429 60.8447C891.151 61.2777 890.807 61.6081 890.396 61.8359C889.991 62.0592 889.528 62.1709 889.009 62.1709C888.517 62.1709 888.077 62.0638 887.689 61.8496C887.307 61.6309 886.983 61.3141 886.719 60.8994C886.454 60.4847 886.254 59.9766 886.117 59.375C885.98 58.7689 885.912 58.0762 885.912 57.2969C885.912 56.4401 885.983 55.6836 886.124 55.0273C886.27 54.3711 886.482 53.8219 886.76 53.3799C887.038 52.9333 887.382 52.5983 887.792 52.375C888.207 52.1471 888.681 52.0332 889.214 52.0332C891.269 52.0332 892.297 53.708 892.297 57.0576ZM891.148 57.167C891.148 54.3779 890.485 52.9834 889.159 52.9834C887.76 52.9834 887.061 54.403 887.061 57.2422C887.061 59.89 887.746 61.2139 889.118 61.2139C890.472 61.2139 891.148 59.8649 891.148 57.167Z" fill="#959595"/>
<defs>
<filter id="filter0_d_148_4" x="0" y="0" width="945" height="422" filterUnits="userSpaceOnUse" color-interpolation-filters="sRGB">
<feFlood flood-opacity="0" result="BackgroundImageFix"/>
<feColorMatrix in="SourceAlpha" type="matrix" values="0 0 0 0 0 0 0 0 0 0 0 0 0 0 0 0 0 0 127 0" result="hardAlpha"/>
<feOffset dy="2"/>
<feGaussianBlur stdDeviation="3"/>
<feComposite in2="hardAlpha" operator="out"/>
<feColorMatrix type="matrix" values="0 0 0 0 0 0 0 0 0 0 0 0 0 0 0 0 0 0 0.12 0"/>
<feBlend mode="normal" in2="BackgroundImageFix" result="effect1_dropShadow_148_4"/>
<feBlend mode="normal" in="SourceGraphic" in2="effect1_dropShadow_148_4" result="shape"/>
</filter>
<filter id="filter1_d_148_4" x="400.362" y="124.304" width="109.089" height="50.4485" filterUnits="userSpaceOnUse" color-interpolation-filters="sRGB">
<feFlood flood-opacity="0" result="BackgroundImageFix"/>
<feColorMatrix in="SourceAlpha" type="matrix" values="0 0 0 0 0 0 0 0 0 0 0 0 0 0 0 0 0 0 127 0" result="hardAlpha"/>
<feOffset dy="2"/>
<feGaussianBlur stdDeviation="2"/>
<feColorMatrix type="matrix" values="0 0 0 0 0.470588 0 0 0 0 0.45098 0 0 0 0 0.537255 0 0 0 0.502 0"/>
<feBlend mode="normal" in2="BackgroundImageFix" result="effect1_dropShadow_148_4"/>
<feBlend mode="normal" in="SourceGraphic" in2="effect1_dropShadow_148_4" result="shape"/>
</filter>
<clipPath id="clip0_148_4">
<rect width="850" height="191" fill="white" transform="translate(89 144)"/>
</clipPath>
</defs>
</svg>
